<svg xmlns="http://www.w3.org/2000/svg" width="52.4" height="52.4" viewBox="0 0 52.4 52.4"><title>Available</title><path d="M27.4,2.4a25,25,0,1,0,25,25A25,25,0,0,0,27.4,2.4Z" style="opacity:0.25"/><path d="M25,48.79A23.79,23.79,0,1,1,48.79,25,23.81,23.81,0,0,1,25,48.79Z" style="fill:#39b500"/><path d="M25,2.42A22.58,22.58,0,1,1,2.42,25,22.61,22.61,0,0,1,25,2.42M25,0A25,25,0,1,0,50,25,25,25,0,0,0,25,0Z"/><path d="M31.57,35.93l-2-5.67H20.26l-2,5.67H12.81l9.75-25.46H27.5l9.67,25.46ZM26.19,20.8c-.51-1.49-1-3-1.27-4-.25.95-.76,2.47-1.27,4L22,25.42h5.82Z" style="fill:#fff"/></svg>