<svg xmlns="http://www.w3.org/2000/svg" width="52.41" height="52.4" viewBox="0 0 52.41 52.4"><title>FuturePhase</title><path d="M27.41,2.4a25,25,0,1,0,25,25A25,25,0,0,0,27.41,2.4Z" style="opacity:0.25"/><path d="M25,48.8A23.79,23.79,0,1,1,48.79,25,23.82,23.82,0,0,1,25,48.8Z" style="fill:#7e7e7e"/><path d="M25,2.42A22.58,22.58,0,1,1,2.42,25,22.6,22.6,0,0,1,25,2.42M25,0A25,25,0,1,0,50,25,25,25,0,0,0,25,0Z"/><path d="M22.12,18.66v4.8h7.67v4.95H22.12V39.14H17V13.68H35.25v5Z" style="fill:#fff"/></svg>