<svg xmlns="http://www.w3.org/2000/svg" width="52.4" height="52.4" viewBox="0 0 52.4 52.4"><title>Model</title><path d="M27.4,2.4a25,25,0,1,0,25,25A25,25,0,0,0,27.4,2.4Z" style="opacity:0.25"/><path d="M25,48.79A23.79,23.79,0,1,1,48.79,25,23.81,23.81,0,0,1,25,48.79Z" style="fill:#ffb500"/><path d="M25,2.42A22.58,22.58,0,1,1,2.42,25,22.6,22.6,0,0,1,25,2.42M25,0A25,25,0,1,0,50,25,25,25,0,0,0,25,0Z"/><path d="M31.81,37.86V28.51c0-1.38.07-4.62.07-5.6-.36.95-1.13,2.76-1.78,4.22L24.94,38.44,19.77,27.13c-.65-1.45-1.42-3.27-1.78-4.22,0,1,.07,4.22.07,5.6v9.35h-5V12.4H18L23.3,23.93c.65,1.42,1.42,3.35,1.74,4.26.33-.95,1.06-2.8,1.71-4.26L31.89,12.4h5V37.86Z" style="fill:#fff"/></svg>