<svg xmlns="http://www.w3.org/2000/svg" width="52.41" height="52.4" viewBox="0 0 52.41 52.4"><title>Reserved</title><path d="M27.41,2.4a25,25,0,1,0,25,25A25,25,0,0,0,27.41,2.4Z" style="opacity:0.25"/><path d="M25,48.78A23.79,23.79,0,1,1,48.79,25,23.82,23.82,0,0,1,25,48.78Z" style="fill:#00479f"/><path d="M25,2.42A22.57,22.57,0,1,1,2.42,25,22.6,22.6,0,0,1,25,2.42M25,0A25,25,0,1,0,50,25,25,25,0,0,0,25,0Z"/><path d="M30,37.85,25.5,28.69H20.38v9.16H15.28V12.4H27.14c4.8,0,8.76,2.65,8.76,8.07,0,3.82-1.64,6.22-4.87,7.49l4.87,9.89ZM27,17.34H20.38v6.55H27c2.36,0,3.64-1.09,3.64-3.31S29.29,17.34,27,17.34Z" style="fill:#fff"/></svg>