<svg xmlns="http://www.w3.org/2000/svg" width="52.41" height="52.4" viewBox="0 0 52.41 52.4"><title>Sold</title><path d="M27.41,2.4a25,25,0,1,0,25,25A25,25,0,0,0,27.41,2.4Z" style="opacity:0.25"/><path d="M25,48.79A23.79,23.79,0,1,1,48.79,25,23.82,23.82,0,0,1,25,48.79Z" style="fill:red"/><path d="M25,2.42A22.58,22.58,0,1,1,2.42,25,22.6,22.6,0,0,1,25,2.42M25,0A25,25,0,1,0,50,25,25,25,0,0,0,25,0Z"/><path d="M24.9,38.26c-4.26,0-8-1.78-9.89-4.62l3.67-3.27a8.25,8.25,0,0,0,6.51,2.91c3,0,4.44-.84,4.44-2.76,0-1.64-.87-2.36-5.67-3.45s-8-2.58-8-7.6C16,14.84,20.07,12,25.08,12a12.17,12.17,0,0,1,9.27,4l-3.67,3.56a7.76,7.76,0,0,0-5.78-2.62c-2.73,0-3.64,1.16-3.64,2.29,0,1.6,1.09,2.11,5.13,3.05s8.51,2.33,8.51,7.85C34.9,35,31.85,38.26,24.9,38.26Z" style="fill:#fff"/></svg>